<?xml version="1.0" encoding="utf-8"?>
<!-- Generator: Fusion 360, Shaper Origin Export Add-In, Version 1.5.0  -->
<svg enable-background="new 0 0 75.5 84.4591239" height="84.4591239cm" shaper:fusionaddin="version:1.5.0" version="1.1" viewBox="0 0 75.5 84.4591239" width="75.5cm" x="0cm" xml:space="preserve" xmlns="http://www.w3.org/2000/svg" xmlns:shaper="http://www.shapertools.com/namespaces/shaper" xmlns:xlink="http://www.w3.org/1999/xlink" y="0cm"><path d="M-17.4368934,10.3461277 L-17.5110636,9.8516595 -17.5852339,9.3571914 -18.5741702,9.5055318 -18.7225107,8.5165955 -17.7335743,8.368255 -17.8819148,7.3793187 -18.8708511,7.5276591 -20,0 -11,0 -2,0 -3.1291489,7.5276591 -4.1180852,7.3793187 -4.2664257,8.368255 -3.2774893,8.5165955 -3.4258298,9.5055318 -4.4147661,9.3571914 -4.4889364,9.8516595 -4.5631066,10.3461277 -3.5741702,10.4944682 -3.7225107,11.4834045 -4.711447,11.3350641 -4.8597875,12.3240004 -3.8708511,12.4723409 -5,20 -9.5,20 -9.5,19 -10.5,19 -10.5,20 -11,20 -11.5,20 -11.5,19 -12.5,19 -12.5,20 -17,20 -18.1291489,12.4723409 -17.1402125,12.3240004 -17.288553,11.3350641 -18.2774893,11.4834045 -18.4258298,10.4944682 -17.4368934,10.3461277z" fill="rgb(0,0,0)" shaper:cutDepth="0" shaper:pathType="exterior" transform="matrix(1,0,0,-1,20,63.4591239)" vector-effect="non-scaling-stroke" /><path d="M2.5631066,10.3461277 L2.4889364,9.8516595 2.4147661,9.3571914 1.4258298,9.5055318 1.2774893,8.5165955 2.2664257,8.368255 2.1180852,7.3793187 1.1291489,7.5276591 0,0 9,0 18,0 16.8708511,7.5276591 15.8819148,7.3793187 15.7335743,8.368255 16.7225107,8.5165955 16.5741702,9.5055318 15.5852339,9.3571914 15.5110636,9.8516595 15.4368934,10.3461277 16.4258298,10.4944682 16.2774893,11.4834045 15.288553,11.3350641 15.1402125,12.3240004 16.1291489,12.4723409 15,20 10.5,20 10.5,19 9.5,19 9.5,20 9,20 8.5,20 8.5,19 7.5,19 7.5,20 3,20 1.8708511,12.4723409 2.8597875,12.3240004 2.711447,11.3350641 1.7225107,11.4834045 1.5741702,10.4944682 2.5631066,10.3461277z" fill="rgb(0,0,0)" shaper:cutDepth="0" shaper:pathType="exterior" transform="matrix(1,0,0,-1,20,63.4591239)" vector-effect="non-scaling-stroke" /><path d="M18.4412974,63.4591239 L36.4412974,63.4591239 36.4412974,45.4591239 18.4412974,45.4591239 18.4412974,63.4591239z" fill="rgb(0,0,0)" shaper:cutDepth="0" shaper:pathType="exterior" transform="matrix(1,0,0,-1,20,63.4591239)" vector-effect="non-scaling-stroke" /><path d="M38.0852339,-10.6428086 L39.0741702,-10.4944682 39.2225107,-11.4834045 38.2335743,-11.631745 38.3819148,-12.6206813 39.3708511,-12.4723409 40.5,-20 45,-20 45,-21 46,-21 46,-20 47,-20 47,-21 48,-21 48,-20 52.5,-20 53.6291489,-12.4723409 54.6180852,-12.6206813 54.7664257,-11.631745 53.7774893,-11.4834045 53.9258298,-10.4944682 54.9147661,-10.6428086 55.0631066,-9.6538723 54.0741702,-9.5055318 54.2225107,-8.5165955 55.211447,-8.6649359 55.3597875,-7.6759996 54.3708511,-7.5276591 55.5,0 37.5,0 38.6291489,-7.5276591 37.6402125,-7.6759996 37.788553,-8.6649359 38.7774893,-8.5165955 38.9258298,-9.5055318 37.9368934,-9.6538723 38.0852339,-10.6428086z" fill="rgb(0,0,0)" shaper:cutDepth="0" shaper:pathType="exterior" transform="matrix(1,0,0,-1,20,63.4591239)" vector-effect="non-scaling-stroke" /><path d="M19.5852339,-10.6428086 L20.5741702,-10.4944682 20.7225107,-11.4834045 19.7335743,-11.631745 19.8819148,-12.6206813 20.8708511,-12.4723409 22,-20 26.5,-20 26.5,-21 27.5,-21 27.5,-20 28.5,-20 28.5,-21 29.5,-21 29.5,-20 34,-20 35.1291489,-12.4723409 36.1180852,-12.6206813 36.2664257,-11.631745 35.2774893,-11.4834045 35.4258298,-10.4944682 36.4147661,-10.6428086 36.5631066,-9.6538723 35.5741702,-9.5055318 35.7225107,-8.5165955 36.711447,-8.6649359 36.8597875,-7.6759996 35.8708511,-7.5276591 37,0 19,0 20.1291489,-7.5276591 19.1402125,-7.6759996 19.288553,-8.6649359 20.2774893,-8.5165955 20.4258298,-9.5055318 19.4368934,-9.6538723 19.5852339,-10.6428086z" fill="rgb(0,0,0)" shaper:cutDepth="0" shaper:pathType="exterior" transform="matrix(1,0,0,-1,20,63.4591239)" vector-effect="non-scaling-stroke" /><path d="M-9.5,31 L-9.5,32 -5,32 -5,36.5 -6,36.5 -6,37.5 -5,37.5 -5,38.5 -6,38.5 -6,39.5 -5,39.5 -5,44 -9.5,44 -9.5,45 -10.5,45 -10.5,44 -11.5,44 -11.5,45 -12.5,45 -12.5,44 -17,44 -17,39.5 -16,39.5 -16,38.5 -17,38.5 -17,37.5 -16,37.5 -16,36.5 -17,36.5 -17,32 -12.5,32 -12.5,31 -11.5,31 -11.5,32 -10.5,32 -10.5,31 -9.5,31z" fill="rgb(0,0,0)" shaper:cutDepth="0" shaper:pathType="exterior" transform="matrix(1,0,0,-1,20,63.4591239)" vector-effect="non-scaling-stroke" /><path d="M38.2225107,36.4834045 L38.0741702,35.4944682 37.0852339,35.6428086 36.9368934,34.6538723 37.9258298,34.5055318 37.7774893,33.5165955 36.788553,33.6649359 36.6402125,32.6759996 37.6291489,32.5276591 36.5,25 54.5,25 53.3708511,32.5276591 54.3597875,32.6759996 54.211447,33.6649359 53.2225107,33.5165955 53.0741702,34.5055318 54.0631066,34.6538723 53.9147661,35.6428086 52.9258298,35.4944682 52.7774893,36.4834045 53.7664257,36.631745 53.6180852,37.6206813 52.6291489,37.4723409 51.5,45 47,45 47,46 46,46 46,45 45,45 45,46 44,46 44,45 39.5,45 38.3708511,37.4723409 37.3819148,37.6206813 37.2335743,36.631745 38.2225107,36.4834045z" fill="rgb(0,0,0)" shaper:cutDepth="0" shaper:pathType="exterior" transform="matrix(1,0,0,-1,20,63.4591239)" vector-effect="non-scaling-stroke" /></svg>